<svg xmlns="http://www.w3.org/2000/svg" viewBox="0 0 800 500" fill="none">
  <defs>
    <linearGradient id="metal" x1="0" y1="0" x2="0" y2="1">
      <stop offset="0%" stop-color="#D4D4D4"/>
      <stop offset="50%" stop-color="#A0A0A0"/>
      <stop offset="100%" stop-color="#707070"/>
    </linearGradient>
    <linearGradient id="goldG" x1="0" y1="0" x2="1" y2="0">
      <stop offset="0%" stop-color="#C89B3C"/>
      <stop offset="100%" stop-color="#E8C86A"/>
    </linearGradient>
    <linearGradient id="insulation" x1="0" y1="0" x2="0" y2="1">
      <stop offset="0%" stop-color="#E8D5B5"/>
      <stop offset="100%" stop-color="#D4B896"/>
    </linearGradient>
  </defs>
  <rect x="50" y="200" width="700" height="60" rx="4" fill="url(#metal)" stroke="#666" stroke-width="1.5"/>
  <rect x="50" y="260" width="700" height="40" rx="2" fill="url(#insulation)" stroke="#B8A080" stroke-width="1"/>
  <rect x="50" y="300" width="700" height="50" rx="4" fill="url(#metal)" stroke="#666" stroke-width="1.5"/>
  <circle cx="180" cy="230" r="8" fill="#0A0F14"/>
  <circle cx="180" cy="230" r="5" fill="#C89B3C"/>
  <line x1="180" y1="222" x2="180" y2="180" stroke="#C89B3C" stroke-width="3" stroke-linecap="round"/>
  <line x1="180" y1="238" x2="180" y2="310" stroke="#C89B3C" stroke-width="3" stroke-linecap="round"/>
  <text x="180" y="170" text-anchor="middle" fill="#C89B3C" font-family="system-ui" font-size="14" font-weight="600">CLIPE OCULTO</text>
  <path d="M350 200 L370 180 L430 180 L450 200" stroke="url(#goldG)" stroke-width="4" fill="none" stroke-linecap="round"/>
  <path d="M450 200 L470 180 L530 180 L550 200" stroke="url(#goldG)" stroke-width="4" fill="none" stroke-linecap="round"/>
  <text x="450" y="165" text-anchor="middle" fill="#C89B3C" font-family="system-ui" font-size="14" font-weight="600">ZIPAGEM DUPLA 360°</text>
  <text x="450" y="380" text-anchor="middle" fill="#3A4A5E" font-family="system-ui" font-size="12">Corte transversal do sistema de telha zipada Poolmak</text>
</svg>
